<svg width="1000" height="1000" viewBox="0 0 1000 1000" fill="none" xmlns="http://www.w3.org/2000/svg">
<path d="M488.23 22.09C400.17 87.35 278.65 146.96 196.44 164.74C175.11 169.34 138.71 173.32 118 173.32H105.24L104 245.9C101.91 350.06 102.33 508.19 104.63 543.54C106.93 579.93 110.91 601.9 120.32 630.55C139.56 689.53 175.96 745.17 230.97 799.77C285.35 853.94 340.57 894.52 448.71 959.78C474.02 975.05 496.82 988.43 499.33 989.69C503.09 991.36 511.67 986.97 557.9 959.78C670.43 893.26 726.49 852.48 778.36 799.35C834.19 742.46 868.5 684.1 885.86 617.58C896.94 574.28 897.36 566.33 897.36 362.4V173.94L868.7 172.69C813.9 169.97 769.14 158.67 705.34 131.27C640.09 103.25 561.23 54.72 510.2 11C507.48 8.49005 504.34 10.17 488.23 22.09V22.09ZM523.58 95.51C617.08 162.44 741.53 216.62 828.96 228.75L839 230L838.17 397.75C837.54 562.78 837.33 565.92 832.73 586.42C809.51 689.75 746.56 768.39 620.22 852.06C585.08 875.48 507.06 922.13 503.51 922.13C500.58 922.13 447.66 890.75 414.41 869.21C298.32 794.54 228.67 725.72 191.44 649.17C172.2 609.43 165.92 583.49 163.2 532.04C160.9 490 160.48 366.8 162.57 286.69L163.82 230.01L178.67 227.71C236.61 218.3 298.94 196.54 373.4 159.73C411.89 140.7 464.81 110.37 490.53 92.38C497.43 87.57 503.92 83.59 504.75 83.59C505.8 83.38 514.38 88.81 523.58 95.51Z" fill="white"/>
<path d="M730.43 423.141H621.553C619.564 409.054 615.504 396.543 609.372 385.605C603.241 374.502 595.369 365.056 585.757 357.267C576.145 349.478 565.042 343.512 552.447 339.369C540.018 335.226 526.512 333.155 511.929 333.155C485.58 333.155 462.627 339.701 443.072 352.793C423.518 365.719 408.354 384.611 397.582 409.469C386.811 434.161 381.425 464.156 381.425 499.455C381.425 535.747 386.811 566.24 397.582 590.932C408.52 615.624 423.766 634.268 443.321 646.862C462.876 659.457 485.497 665.754 511.183 665.754C525.601 665.754 538.941 663.848 551.205 660.037C563.634 656.225 574.654 650.674 584.266 643.382C593.877 635.925 601.832 626.893 608.129 616.287C614.592 605.681 619.067 593.583 621.553 579.994L730.43 580.491C727.613 603.858 720.57 626.396 709.301 648.105C698.198 669.649 683.2 688.955 664.308 706.024C645.582 722.928 623.21 736.351 597.192 746.294C571.339 756.071 542.09 760.96 509.443 760.96C464.036 760.96 423.435 750.686 387.639 730.136C352.009 709.587 323.837 679.84 303.122 640.896C282.573 601.952 272.298 554.805 272.298 499.455C272.298 443.938 282.739 396.708 303.619 357.764C324.5 318.82 352.838 289.156 388.634 268.773C424.429 248.223 464.699 237.949 509.443 237.949C538.941 237.949 566.285 242.092 591.474 250.378C616.83 258.664 639.285 270.761 658.84 286.67C678.394 302.414 694.304 321.72 706.567 344.589C718.996 367.459 726.95 393.643 730.43 423.141Z" fill="white"/>
</svg>
