<svg width="1000" height="1000" xmlns="http://www.w3.org/2000/svg" xml:space="preserve" enable-background="new 0 0 1000 1000" version="1.1">

 <g>
  <title>Layer 1</title>
  <g id="svg_1">
   <g id="svg_2" transform="translate(0.000000,511.000000) scale(0.100000,-0.100000)">
    <path fill="#ffffff" id="svg_3" d="m4882.3,4889.1c-880.6,-652.6 -2095.8,-1248.7 -2917.9,-1426.5c-213.3,-46 -577.3,-85.8 -784.4,-85.8l-127.6,0l-12.4,-725.8c-20.9,-1041.6 -16.7,-2622.9 6.3,-2976.4c23,-363.9 62.8,-583.6 156.9,-870.1c192.4,-589.8 556.4,-1146.2 1106.5,-1692.2c543.8,-541.7 1096,-947.5 2177.4,-1600.1c253.1,-152.7 481.1,-286.5 506.2,-299.1c37.6,-16.7 123.4,27.2 585.7,299.1c1125.3,665.2 1685.9,1073 2204.6,1604.3c558.3,568.9 901.4,1152.5 1075,1817.7c110.8,433 115,512.5 115,2551.8l0,1884.6l-286.6,12.5c-548,27.2 -995.6,140.2 -1633.6,414.2c-652.5,280.2 -1441.1,765.5 -1951.4,1202.7c-27.2,25.1 -58.6,8.3 -219.7,-110.9zm353.5,-734.2c935,-669.3 2179.5,-1211.1 3053.8,-1332.4l100.4,-12.5l-8.3,-1677.5c-6.3,-1650.3 -8.4,-1681.7 -54.4,-1886.7c-232.2,-1033.3 -861.7,-1819.7 -2125.1,-2656.4c-351.4,-234.2 -1131.6,-700.7 -1167.1,-700.7c-29.3,0 -558.5,313.8 -891,529.2c-1160.9,746.7 -1857.4,1434.9 -2229.7,2200.4c-192.4,397.4 -255.2,656.8 -282.4,1171.3c-23,420.4 -27.2,1652.4 -6.3,2453.5l12.5,566.8l148.5,23c579.4,94.1 1202.7,311.7 1947.3,679.8c384.9,190.3 914.1,493.6 1171.3,673.5c69,48.1 133.9,87.9 142.2,87.9c10.5,2.1 96.3,-52.2 188.3,-119.2z"/>
   </g>
  </g>
 </g>
</svg>